<svg width="858" height="397" viewBox="0 0 858 397" fill="none" xmlns="http://www.w3.org/2000/svg">
<path d="M284.011 37.3692C282.117 39.2432 280.339 41.2051 278.678 43.2841C255.332 72.7126 235.338 104.747 210.011 132.682C185.471 159.768 158.074 181.466 119.398 182.872C115.143 183.018 110.975 184.746 105 186.151C115.959 172.096 129.074 162.872 141.927 153.531C158.977 141.145 176.639 129.666 193.806 117.456C222.485 97.1045 244.111 69.1402 270.051 45.8609C273.023 43.1963 275.938 40.4731 278.882 37.8084L285.469 31.4542C291.968 25.1 298.38 18.6286 304.996 12.3916C320.006 -1.78095 333.762 -3.59643 352.299 5.92023C365.502 12.7137 375.557 23.2845 385.321 34.0896C395.551 45.4217 405.081 57.4566 415.574 68.5545C426.882 80.5016 432.536 80.8237 447.255 73.3275C458.243 67.7346 466.083 58.6279 474.389 49.9604C489.545 34.1481 499.134 33.1818 517.233 45.656C535.74 58.3937 549.526 75.9629 564.274 92.5073C572.318 101.497 580.624 110.135 590.534 117.016C603.241 125.86 612.451 125.655 622.244 114.088C639.177 94.0592 650.398 98.9786 664.039 112.829C691.61 140.852 722.038 164.57 757.508 181.583C759.14 182.374 760.656 183.399 762.229 184.306C764.59 185.683 766.456 187.703 765.902 190.456C765.261 193.442 762.375 193.677 759.781 193.882C749.784 194.731 741.041 190.924 733.463 185.156C719.269 174.292 704.084 165.068 688.958 155.669C679.777 149.959 673.686 141.32 667.186 132.975C656.169 118.832 644.599 116.519 629.122 125.303C622.506 129.081 616.211 133.414 609.711 137.426C601.9 142.257 595.08 142.667 587.736 134.761C580.945 127.441 573.251 121.028 564.973 115.464C542.998 100.706 524.84 82.1707 508.781 61.3512C500.299 50.3704 495.636 49.4334 484.357 57.8959C473.427 66.0656 463.139 75.0844 452.472 83.6348C449.79 85.7724 446.934 87.705 443.961 89.4034C424.23 100.618 417.089 100.062 403.391 82.9613C388.527 64.4258 371.069 48.145 351.104 35.3194C324.931 18.5115 313.914 15.6712 292.813 29.9901C289.636 32.1569 286.693 34.6752 283.953 37.3692H284.011Z" fill="#F5BE41"/>
<path d="M24.528 310.512C17.472 310.512 9.912 309.084 3.024 307.068L5.292 297.828C15.792 306.396 24.192 307.992 28.98 307.992C33.6 307.992 35.868 306.228 35.952 304.296C35.952 292.704 2.184 284.052 2.184 270.612C2.184 262.548 15.372 259.188 28.56 259.188C34.272 259.188 40.236 259.86 45.696 261.036L44.184 270.276C38.136 265.488 27.384 261.456 20.832 261.456C16.884 261.456 14.196 262.716 14.196 265.656C14.196 272.628 47.208 282.54 47.208 296.736C47.124 306.9 35.7 310.512 24.528 310.512ZM79.357 310.344C71.461 310.344 64.237 304.884 64.237 294.468V260.448H79.357V301.608C79.357 305.472 81.205 307.32 83.641 307.32C88.513 307.32 95.485 300.096 97.585 289.512V260.448H112.705V309H97.585V295.308H97.249C93.385 305.388 86.665 310.344 79.357 310.344ZM147.054 309H131.934V260.448H147.054V273.216H147.306C150.498 263.976 157.806 259.02 164.61 259.02C171.75 259.02 177.21 263.892 177.21 273.3H177.462C180.57 263.64 187.29 259.02 193.674 259.02C200.898 259.02 206.946 264.48 206.946 274.98V309H191.826V273.468C191.826 268.008 189.558 265.488 186.954 265.488C183.174 265.488 178.89 270.192 177.462 279.348V309H162.342V273.468C162.342 267.504 159.822 264.9 157.05 264.9C152.934 264.9 148.398 270.192 147.054 279.768V309ZM241.81 309H226.69V260.448H241.81V273.216H242.062C245.254 263.976 252.562 259.02 259.366 259.02C266.506 259.02 271.966 263.892 271.966 273.3H272.218C275.326 263.64 282.046 259.02 288.43 259.02C295.654 259.02 301.702 264.48 301.702 274.98V309H286.582V273.468C286.582 268.008 284.314 265.488 281.71 265.488C277.93 265.488 273.646 270.192 272.218 279.348V309H257.098V273.468C257.098 267.504 254.578 264.9 251.806 264.9C247.69 264.9 243.154 270.192 241.81 279.768V309ZM329.09 257.508C324.806 257.508 321.446 254.148 321.446 249.864C321.446 245.58 324.806 242.22 329.09 242.22C333.374 242.22 336.818 245.58 336.818 249.864C336.818 254.148 333.374 257.508 329.09 257.508ZM336.65 309H321.53V260.448H336.65V309ZM379.316 310.512C368.564 310.512 357.896 303.288 357.896 291.612V262.044H352.856V260.448H360.668C367.472 257.088 371.42 247.848 371.42 241.632H373.016V260.448H385.028V262.044H373.016V301.02C373.016 306.564 375.032 309 377.636 309C382.088 309 387.548 303.12 392 294.384L395.192 303.456C391.076 308.328 385.112 310.512 379.316 310.512ZM459.773 310.512C452.717 310.512 445.157 309.084 438.269 307.068L440.537 297.828C451.037 306.396 459.437 307.992 464.225 307.992C468.845 307.992 471.113 306.228 471.197 304.296C471.197 292.704 437.429 284.052 437.429 270.612C437.429 262.548 450.617 259.188 463.805 259.188C469.517 259.188 475.481 259.86 480.941 261.036L479.429 270.276C473.381 265.488 462.629 261.456 456.077 261.456C452.129 261.456 449.441 262.716 449.441 265.656C449.441 272.628 482.453 282.54 482.453 296.736C482.369 306.9 470.945 310.512 459.773 310.512ZM525.413 310.26C510.209 310.26 495.929 300.684 495.929 283.632C495.929 267.168 510.125 259.02 523.481 259.02C535.409 259.02 546.833 265.488 546.833 278.424C546.833 280.44 546.581 282.54 545.993 284.892H511.049C511.385 300.516 516.593 308.58 523.985 308.58C529.445 308.58 536.333 303.708 543.305 294.132L546.329 303.372C540.197 308.076 532.637 310.26 525.413 310.26ZM511.049 283.296H532.301C532.553 281.448 532.721 279.684 532.721 277.92C532.721 266.328 528.353 260.868 523.397 260.868C517.769 260.868 511.301 268.68 511.049 283.296ZM591.622 310.26C576.418 310.26 562.138 300.684 562.138 283.632C562.138 267.168 576.334 259.02 589.69 259.02C601.618 259.02 613.042 265.488 613.042 278.424C613.042 280.44 612.79 282.54 612.202 284.892H577.258C577.594 300.516 582.802 308.58 590.194 308.58C595.654 308.58 602.542 303.708 609.514 294.132L612.538 303.372C606.406 308.076 598.846 310.26 591.622 310.26ZM577.258 283.296H598.51C598.762 281.448 598.93 279.684 598.93 277.92C598.93 266.328 594.562 260.868 589.606 260.868C583.978 260.868 577.51 268.68 577.258 283.296ZM645.309 309H630.189V250.032H645.309V277.416L675.381 260.7V269.94C667.737 268.26 653.709 273.972 649.089 276.744V276.996C656.985 274.224 664.629 276.24 667.065 281.952L678.405 309H663.285L651.861 282.54C650.601 279.6 648.417 278.592 645.309 279.516V309ZM718.626 310.26C703.422 310.26 689.142 300.684 689.142 283.632C689.142 267.168 703.338 259.02 716.694 259.02C728.622 259.02 740.046 265.488 740.046 278.424C740.046 280.44 739.794 282.54 739.206 284.892H704.262C704.598 300.516 709.806 308.58 717.198 308.58C722.658 308.58 729.546 303.708 736.518 294.132L739.542 303.372C733.41 308.076 725.85 310.26 718.626 310.26ZM704.262 283.296H725.514C725.766 281.448 725.934 279.684 725.934 277.92C725.934 266.328 721.566 260.868 716.61 260.868C710.982 260.868 704.514 268.68 704.262 283.296ZM772.313 309H757.193V260.448H772.313V283.212H772.397C776.177 266.916 786.593 255.324 797.513 260.448L795.917 269.688C783.821 264.312 776.177 271.62 772.313 287.664V309ZM832.746 310.512C825.69 310.512 818.13 309.084 811.242 307.068L813.51 297.828C824.01 306.396 832.41 307.992 837.198 307.992C841.818 307.992 844.086 306.228 844.17 304.296C844.17 292.704 810.402 284.052 810.402 270.612C810.402 262.548 823.59 259.188 836.778 259.188C842.49 259.188 848.454 259.86 853.914 261.036L852.402 270.276C846.354 265.488 835.602 261.456 829.05 261.456C825.102 261.456 822.414 262.716 822.414 265.656C822.414 272.628 855.426 282.54 855.426 296.736C855.342 306.9 843.918 310.512 832.746 310.512Z" fill="black"/>
<path d="M232.515 377.876H218.925V346.286H231.48C238.14 346.286 240.885 350.336 240.885 354.071C240.885 359.786 236.475 361.406 233.595 361.586V361.766C236.835 361.901 243 363.116 243 368.786C243 373.196 239.535 377.876 232.515 377.876ZM223.425 346.916V361.406H230.265C232.47 361.406 236.7 359.876 236.7 354.386C236.7 350.876 234.45 346.916 229.545 346.916H223.425ZM223.425 362.036V377.246H230.085C235.665 377.246 238.5 372.971 238.5 369.191C238.5 363.341 233.415 362.036 230.265 362.036H223.425ZM271.919 346.286H275.069L265.889 363.836V377.876H261.389V363.836L252.209 346.286H256.709L265.574 363.251L270.614 353.576C271.829 351.281 272.054 349.346 271.919 346.286ZM314.106 377.876H300.516V346.286H313.071C319.731 346.286 322.476 350.336 322.476 354.071C322.476 359.786 318.066 361.406 315.186 361.586V361.766C318.426 361.901 324.591 363.116 324.591 368.786C324.591 373.196 321.126 377.876 314.106 377.876ZM305.016 346.916V361.406H311.856C314.061 361.406 318.291 359.876 318.291 354.386C318.291 350.876 316.041 346.916 311.136 346.916H305.016ZM305.016 362.036V377.246H311.676C317.256 377.246 320.091 372.971 320.091 369.191C320.091 363.341 315.006 362.036 311.856 362.036H305.016ZM348.3 378.641C338.49 378.641 333.585 371.081 333.585 362.171C333.585 352.676 338.49 345.521 348.3 345.521C358.11 345.521 363.015 352.676 363.015 362.171C363.015 371.081 358.11 378.641 348.3 378.641ZM348.3 378.011C355.905 378.011 358.515 370.046 358.515 362.171C358.515 354.341 355.905 346.151 348.3 346.151C340.515 346.151 338.085 354.341 338.085 362.171C338.085 370.046 340.875 378.011 348.3 378.011ZM387.528 377.876H373.938V346.286H386.493C393.153 346.286 395.898 350.336 395.898 354.071C395.898 359.786 391.488 361.406 388.608 361.586V361.766C391.848 361.901 398.013 363.116 398.013 368.786C398.013 373.196 394.548 377.876 387.528 377.876ZM378.438 346.916V361.406H385.278C387.483 361.406 391.713 359.876 391.713 354.386C391.713 350.876 389.463 346.916 384.558 346.916H378.438ZM378.438 362.036V377.246H385.098C390.678 377.246 393.513 372.971 393.513 369.191C393.513 363.341 388.428 362.036 385.278 362.036H378.438ZM422.767 377.876H409.177V346.286H421.732C428.392 346.286 431.137 350.336 431.137 354.071C431.137 359.786 426.727 361.406 423.847 361.586V361.766C427.087 361.901 433.252 363.116 433.252 368.786C433.252 373.196 429.787 377.876 422.767 377.876ZM413.677 346.916V361.406H420.517C422.722 361.406 426.952 359.876 426.952 354.386C426.952 350.876 424.702 346.916 419.797 346.916H413.677ZM413.677 362.036V377.246H420.337C425.917 377.246 428.752 372.971 428.752 369.191C428.752 363.341 423.667 362.036 420.517 362.036H413.677ZM462.171 346.286H465.321L456.141 363.836V377.876H451.641V363.836L442.461 346.286H446.961L455.826 363.251L460.866 353.576C462.081 351.281 462.306 349.346 462.171 346.286ZM504.267 377.876H499.767V346.916C494.142 346.916 492.297 347.636 488.877 349.436V346.286H515.202V349.436C511.782 347.636 509.712 346.916 504.267 346.916V377.876ZM535.783 378.641C525.973 378.641 521.068 371.081 521.068 362.171C521.068 352.676 525.973 345.521 535.783 345.521C545.593 345.521 550.498 352.676 550.498 362.171C550.498 371.081 545.593 378.641 535.783 378.641ZM535.783 378.011C543.388 378.011 545.998 370.046 545.998 362.171C545.998 354.341 543.388 346.151 535.783 346.151C527.998 346.151 525.568 354.341 525.568 362.171C525.568 370.046 528.358 378.011 535.783 378.011ZM573.658 378.551C566.548 378.551 561.103 374.861 561.103 367.391V346.286H565.648V369.596C565.648 375.806 569.698 377.921 573.658 377.921C577.573 377.921 581.533 375.806 581.533 369.596V346.286H586.033V367.391C586.033 374.861 580.723 378.551 573.658 378.551ZM615.392 365.141L621.647 377.876H617.147L610.532 364.871C610.037 363.881 609.227 363.296 608.102 363.296C606.752 363.296 604.547 364.331 602.522 366.176V377.876H598.022V346.286H610.937C617.372 346.286 620.252 350.066 620.252 354.071C620.252 357.851 617.822 362.036 612.827 362.891C614.132 363.386 614.852 364.016 615.392 365.141ZM610.082 362.351C613.952 362.531 616.202 358.751 616.202 354.836C616.202 350.651 613.592 346.916 608.147 346.916H602.522V365.546C604.772 363.656 607.472 362.216 610.082 362.351ZM643.328 378.461C639.593 378.461 635.363 377.696 630.998 376.166L631.358 373.016C636.443 376.166 640.718 377.696 644.138 377.696C649.718 377.696 653.498 374.636 652.508 370.091C650.708 362.261 631.223 361.001 630.683 353.441C630.323 348.131 636.488 345.566 643.598 345.566C647.018 345.566 650.888 346.106 654.893 347.321L654.488 350.471C650.258 347.906 645.803 346.286 642.653 346.286C637.433 346.286 633.923 348.086 634.148 351.326C634.598 357.626 656.018 359.876 656.648 369.101C657.098 375.176 651.158 378.461 643.328 378.461Z" fill="black"/>
</svg>
