<?xml version="1.0" standalone="no"?>
<!DOCTYPE svg PUBLIC "-//W3C//DTD SVG 20010904//EN"
 "http://www.w3.org/TR/2001/REC-SVG-20010904/DTD/svg10.dtd">
<svg version="1.0" xmlns="http://www.w3.org/2000/svg"
 width="661.000000pt" height="661.000000pt" viewBox="0 0 661.000000 661.000000"
 preserveAspectRatio="xMidYMid meet">
<metadata>
Created by potrace 1.14, written by Peter Selinger 2001-2017
</metadata>
<g transform="translate(0.000000,661.000000) scale(0.100000,-0.100000)"
fill="#000000" stroke="none">
<path d="M2165 4262 c-72 -25 -124 -65 -265 -202 -69 -67 -156 -151 -195 -187
-38 -36 -200 -194 -360 -352 -159 -158 -328 -317 -375 -352 -47 -36 -197 -144
-335 -239 -340 -235 -456 -324 -553 -421 -45 -45 -81 -83 -79 -85 1 -2 27 3
57 11 30 7 88 16 128 19 377 31 685 248 1083 766 36 47 133 177 214 290 269
370 314 422 430 493 86 52 133 66 217 64 61 -2 86 -9 151 -40 215 -102 512
-340 667 -536 105 -131 170 -181 238 -181 86 0 262 100 399 226 55 51 232 183
272 203 72 37 102 21 208 -110 122 -153 288 -322 391 -399 19 -14 39 -30 45
-35 7 -6 57 -43 113 -83 55 -39 129 -100 165 -135 104 -104 150 -124 222 -93
18 7 82 45 143 84 127 81 215 115 279 108 84 -9 136 -49 257 -201 75 -94 100
-115 247 -208 183 -115 227 -145 313 -208 105 -78 171 -108 248 -115 81 -7
120 6 120 40 0 29 -20 44 -140 108 -111 59 -179 97 -210 117 -14 9 -32 21 -41
26 -65 41 -135 89 -137 96 -2 5 -8 9 -14 9 -5 0 -64 45 -131 99 -155 127 -154
126 -302 269 -132 127 -186 162 -254 162 -60 0 -104 -27 -202 -123 -63 -61
-97 -87 -125 -94 -120 -30 -272 81 -549 403 -97 112 -285 297 -353 347 -100
73 -167 102 -237 102 -38 -1 -72 -7 -94 -19 -19 -10 -98 -80 -175 -155 -175
-169 -276 -231 -376 -233 -65 -1 -108 32 -245 186 -38 44 -75 84 -80 90 -6 6
-21 25 -34 41 -35 47 -160 183 -221 243 -186 182 -376 256 -525 204z"/>
</g>
</svg>
